<svg height="512" viewBox="0 0 512 512" width="512" xmlns="http://www.w3.org/2000/svg"><g id="Solid"><path d="m199.054 404.148a159.609 159.609 0 0 1 -81.437-70.505l15.283 5.867a24.682 24.682 0 1 0 17.691-46.086l-67.244-25.813a24.682 24.682 0 0 0 -31.889 14.2l-25.812 67.242a24.683 24.683 0 1 0 46.087 17.691l3.2-8.341a209.2 209.2 0 0 0 106.373 91.81 24.683 24.683 0 0 0 17.747-46.065z"/><path d="m436.054 298.788a24.681 24.681 0 0 0 -31.9 14.159 159.611 159.611 0 0 1 -70.506 81.435l5.862-15.282a24.683 24.683 0 0 0 -46.087-17.691l-25.813 67.244a24.682 24.682 0 0 0 14.2 31.888l67.245 25.813a24.682 24.682 0 1 0 17.69-46.085l-8.341-3.2a209.19 209.19 0 0 0 91.811-106.373 24.682 24.682 0 0 0 -14.161-31.908z"/><path d="m230.192 51.459-67.245-25.813a24.682 24.682 0 1 0 -17.69 46.086l8.341 3.2a209.2 209.2 0 0 0 -91.811 106.375 24.682 24.682 0 1 0 46.064 17.747 159.617 159.617 0 0 1 70.506-81.436l-5.867 15.282a24.683 24.683 0 1 0 46.087 17.691l25.813-67.244a24.683 24.683 0 0 0 -14.2-31.888z"/><path d="m472.156 131.059a24.683 24.683 0 0 0 -31.889 14.2l-3.2 8.341a209.187 209.187 0 0 0 -106.373-91.81 24.682 24.682 0 1 0 -17.747 46.064 159.611 159.611 0 0 1 81.437 70.506l-15.284-5.869a24.682 24.682 0 1 0 -17.691 46.085l67.177 25.788.123.046a24.66 24.66 0 0 0 31.834-14.219l25.812-67.244a24.682 24.682 0 0 0 -14.199-31.888z"/></g></svg>