<?xml version="1.0" encoding="UTF-8"?>
<svg xmlns="http://www.w3.org/2000/svg" xmlns:xlink="http://www.w3.org/1999/xlink" width="810pt" height="809.999993pt" viewBox="0 0 810 809.999993" version="1.2">
<defs>
<clipPath id="clip1">
  <path d="M 405.863281 405 L 792 405 L 792 809.980469 L 405.863281 809.980469 Z M 405.863281 405 "/>
</clipPath>
<clipPath id="clip2">
  <path d="M 405 18 L 809.980469 18 L 809.980469 405 L 405 405 Z M 405 18 "/>
</clipPath>
</defs>
<g id="surface1">
<path style=" stroke:none;fill-rule:nonzero;fill:rgb(65.098572%,65.098572%,65.098572%);fill-opacity:1;" d="M 147.613281 404.449219 C 125.808594 388.660156 105.976562 369.292969 88.671875 346.878906 C 63.640625 362.269531 40.269531 381.511719 19.195312 404.074219 L 18.867188 404.433594 L 18.867188 403.945312 C 18.898438 374.65625 22.316406 345.28125 29.023438 316.628906 C 44.9375 248.210938 79.300781 185.589844 128.378906 135.535156 C 141.625 122.03125 154.335938 110.640625 167.238281 100.710938 C 172.5 96.417969 178.140625 92.4375 183.597656 88.585938 C 185.164062 87.480469 186.726562 86.375 188.289062 85.261719 C 190.851562 83.546875 193.449219 81.886719 196.042969 80.226562 L 199.257812 78.164062 L 204.769531 74.65625 L 210.429688 71.378906 C 223.652344 63.46875 238.519531 56.070312 257.214844 48.109375 L 268.007812 43.851562 C 268.640625 43.613281 269.277344 43.359375 269.90625 43.105469 C 271.09375 42.632812 272.328125 42.140625 273.570312 41.742188 L 284.644531 37.980469 L 272.222656 0.0078125 L 272.597656 0.140625 C 299.234375 9.855469 323.789062 21.882812 345.578125 35.878906 C 367.28125 49.859375 386.902344 65.785156 403.910156 83.234375 L 404.035156 83.367188 L 403.910156 83.503906 C 387.605469 100.539062 373.539062 119.195312 362.113281 138.960938 C 351.335938 157.628906 343.042969 177.601562 337.472656 198.324219 L 337.308594 198.945312 L 324.804688 160.722656 L 317.503906 163.183594 C 316.707031 163.421875 315.925781 163.746094 315.164062 164.058594 C 314.714844 164.238281 314.273438 164.425781 313.828125 164.597656 L 306.660156 167.417969 C 297.140625 171.523438 286 176.578125 275.574219 182.890625 L 271.789062 185.050781 L 260.820312 192.109375 C 259.339844 193.195312 257.828125 194.261719 256.316406 195.324219 C 253.140625 197.570312 249.855469 199.894531 246.8125 202.421875 C 238.496094 208.769531 230.015625 216.371094 220.878906 225.65625 C 188.214844 258.929688 165.351562 300.574219 154.761719 346.085938 C 150.320312 365.082031 148.023438 384.667969 147.921875 404.292969 L 147.921875 404.664062 L 147.613281 404.449219 "/>
<path style=" stroke:none;fill-rule:nonzero;fill:rgb(65.098572%,65.098572%,65.098572%);fill-opacity:1;" d="M 337.292969 198.273438 L 324.929688 160.484375 L 317.445312 163.003906 C 316.183594 163.386719 314.984375 163.953125 313.757812 164.417969 L 306.585938 167.238281 C 295.960938 171.828125 285.417969 176.710938 275.476562 182.722656 L 271.699219 184.878906 L 268.042969 187.242188 L 260.714844 191.953125 C 256.035156 195.378906 251.15625 198.554688 246.6875 202.273438 C 237.449219 209.332031 228.894531 217.246094 220.742188 225.523438 C 188.140625 258.734375 165.066406 300.941406 154.574219 346.042969 C 150.125 365.074219 147.832031 384.617188 147.726562 404.292969 C 126.25 388.734375 106.328125 369.457031 88.714844 346.632812 C 64.164062 361.710938 40.539062 380.945312 19.054688 403.945312 C 19.09375 374.675781 22.507812 345.300781 29.210938 316.675781 C 45.019531 248.710938 79.800781 185.355469 128.523438 135.671875 C 140.695312 123.257812 153.566406 111.480469 167.355469 100.859375 C 174.101562 95.363281 181.320312 90.472656 188.402344 85.417969 C 192.011719 82.992188 195.707031 80.683594 199.363281 78.320312 L 204.875 74.820312 L 210.527344 71.550781 C 225.476562 62.601562 241.265625 55.109375 257.289062 48.289062 L 268.074219 44.03125 C 269.929688 43.328125 271.746094 42.527344 273.628906 41.921875 L 284.894531 38.101562 L 272.53125 0.320312 C 299.070312 10 323.480469 21.902344 345.472656 36.039062 C 367.46875 50.210938 386.949219 66.109375 403.765625 83.367188 C 387.070312 100.820312 373.078125 119.621094 361.949219 138.863281 C 350.8125 158.152344 342.640625 178.363281 337.292969 198.273438 "/>
<path style=" stroke:none;fill-rule:nonzero;fill:rgb(32.939148%,32.939148%,32.939148%);fill-opacity:1;" d="M 403.941406 791.113281 C 374.648438 791.082031 345.273438 787.664062 316.625 780.957031 C 248.203125 765.035156 185.582031 730.679688 135.527344 681.59375 C 122.03125 668.363281 110.640625 655.652344 100.703125 642.742188 C 96.417969 637.480469 92.4375 631.847656 88.585938 626.394531 C 87.480469 624.824219 86.375 623.253906 85.253906 621.691406 C 83.523438 619.113281 81.855469 616.503906 80.191406 613.886719 L 78.15625 610.722656 L 74.648438 605.210938 L 71.371094 599.550781 C 63.460938 586.328125 56.066406 571.460938 48.101562 552.765625 L 43.84375 541.980469 C 43.597656 541.332031 43.34375 540.6875 43.089844 540.050781 C 42.617188 538.871094 42.132812 537.644531 41.734375 536.410156 L 37.976562 525.335938 L 0 537.757812 L 0.132812 537.390625 C 9.847656 510.75 21.867188 486.191406 35.875 464.402344 C 49.84375 442.707031 65.777344 423.082031 83.226562 406.070312 L 83.359375 405.945312 L 83.496094 406.070312 C 100.53125 422.375 119.1875 436.441406 138.953125 447.867188 C 157.621094 458.644531 177.585938 466.9375 198.316406 472.507812 L 198.9375 472.671875 L 160.714844 485.175781 L 163.175781 492.476562 C 163.414062 493.28125 163.738281 494.054688 164.050781 494.824219 C 164.238281 495.265625 164.417969 495.714844 164.589844 496.15625 L 167.410156 503.320312 C 171.523438 512.851562 176.578125 524.003906 182.882812 534.40625 L 185.042969 538.191406 L 192.101562 549.160156 C 193.195312 550.648438 194.261719 552.160156 195.324219 553.667969 C 197.570312 556.847656 199.886719 560.132812 202.414062 563.175781 C 208.765625 571.476562 216.363281 579.957031 225.648438 589.101562 C 258.921875 621.765625 300.558594 644.628906 346.078125 655.21875 C 365.074219 659.660156 384.660156 661.960938 404.292969 662.058594 L 404.65625 662.058594 L 404.441406 662.367188 C 388.644531 684.179688 369.277344 704.003906 346.871094 721.308594 C 362.261719 746.332031 381.503906 769.710938 404.066406 790.785156 L 404.425781 791.113281 L 403.941406 791.113281 "/>
<path style=" stroke:none;fill-rule:nonzero;fill:rgb(32.939148%,32.939148%,32.939148%);fill-opacity:1;" d="M 198.265625 472.6875 L 160.476562 485.054688 L 162.996094 492.535156 C 163.378906 493.796875 163.945312 494.996094 164.410156 496.222656 L 167.230469 503.394531 C 171.8125 514.019531 176.695312 524.570312 182.71875 534.503906 L 184.871094 538.285156 L 187.234375 541.945312 L 191.945312 549.265625 C 195.378906 553.953125 198.546875 558.824219 202.265625 563.292969 C 209.324219 572.53125 217.238281 581.085938 225.515625 589.238281 C 258.726562 621.84375 300.933594 644.914062 346.042969 655.40625 C 365.066406 659.855469 384.609375 662.148438 404.285156 662.253906 C 388.730469 683.730469 369.449219 703.652344 346.625 721.265625 C 361.703125 745.816406 380.9375 769.441406 403.941406 790.925781 C 374.660156 790.886719 345.292969 787.472656 316.667969 780.769531 C 248.707031 764.960938 185.347656 730.179688 135.65625 681.457031 C 123.25 669.285156 111.472656 656.421875 100.851562 642.625 C 95.355469 635.878906 90.464844 628.660156 85.410156 621.582031 C 82.988281 617.96875 80.675781 614.273438 78.3125 610.617188 L 74.8125 605.105469 L 71.539062 599.453125 C 62.59375 584.503906 55.101562 568.714844 48.28125 552.691406 L 44.023438 541.90625 C 43.320312 540.050781 42.523438 538.234375 41.914062 536.351562 L 38.09375 525.085938 L 0.3125 537.449219 C 9.992188 510.910156 21.894531 486.5 36.039062 464.507812 C 50.203125 442.511719 66.101562 423.039062 83.359375 406.214844 C 100.816406 422.910156 119.613281 436.902344 138.855469 448.03125 C 158.144531 459.175781 178.355469 467.339844 198.265625 472.6875 "/>
<g clip-path="url(#clip1)" clip-rule="nonzero">
<path style=" stroke:none;fill-rule:nonzero;fill:rgb(65.098572%,65.098572%,65.098572%);fill-opacity:1;" d="M 537.382812 809.847656 C 510.730469 800.132812 486.179688 788.105469 464.394531 774.105469 C 442.699219 760.128906 423.078125 744.203125 406.0625 726.746094 L 405.9375 726.621094 L 406.0625 726.484375 C 422.375 709.441406 436.433594 690.785156 447.859375 671.027344 C 458.636719 652.359375 466.929688 632.394531 472.5 611.664062 L 472.664062 611.042969 L 485.167969 649.265625 L 492.46875 646.804688 C 493.269531 646.566406 494.039062 646.25 494.808594 645.929688 C 495.257812 645.75 495.699219 645.5625 496.148438 645.390625 L 503.3125 642.578125 C 512.839844 638.457031 523.988281 633.402344 534.398438 627.097656 L 538.183594 624.945312 L 549.152344 617.878906 C 550.640625 616.785156 552.152344 615.71875 553.667969 614.648438 C 556.839844 612.410156 560.125 610.09375 563.167969 607.566406 C 571.46875 601.222656 579.949219 593.617188 589.09375 584.332031 C 621.757812 551.058594 644.628906 509.414062 655.210938 463.902344 C 659.652344 444.90625 661.957031 425.320312 662.050781 405.695312 L 662.050781 405.324219 L 662.359375 405.539062 C 684.164062 421.328125 704 440.695312 721.308594 463.101562 C 746.332031 447.71875 769.703125 428.476562 790.777344 405.914062 L 791.105469 405.554688 L 791.105469 406.039062 C 791.074219 435.324219 787.65625 464.699219 780.949219 493.359375 C 765.035156 561.777344 730.671875 624.398438 681.59375 674.460938 C 668.347656 687.957031 655.636719 699.347656 642.734375 709.277344 C 637.472656 713.570312 631.824219 717.554688 626.367188 721.40625 C 624.804688 722.515625 623.242188 723.613281 621.683594 724.726562 C 619.128906 726.441406 616.539062 728.09375 613.953125 729.753906 L 610.714844 731.824219 L 605.203125 735.332031 L 599.542969 738.609375 C 586.320312 746.519531 571.453125 753.914062 552.757812 761.878906 L 541.972656 766.136719 C 541.332031 766.375 540.703125 766.628906 540.066406 766.875 C 538.878906 767.355469 537.644531 767.847656 536.402344 768.246094 L 525.328125 772.003906 L 537.75 809.980469 L 537.382812 809.847656 "/>
</g>
<path style=" stroke:none;fill-rule:nonzero;fill:rgb(65.098572%,65.098572%,65.098572%);fill-opacity:1;" d="M 472.679688 611.714844 L 485.050781 649.511719 L 492.527344 646.984375 C 493.792969 646.609375 494.988281 646.035156 496.214844 645.578125 L 503.386719 642.75 C 514.011719 638.167969 524.5625 633.285156 534.496094 627.261719 L 538.273438 625.109375 L 541.9375 622.746094 L 549.257812 618.035156 C 553.945312 614.601562 558.816406 611.433594 563.285156 607.714844 C 572.523438 600.65625 581.078125 592.742188 589.230469 584.464844 C 621.84375 551.253906 644.90625 509.046875 655.398438 463.945312 C 659.847656 444.914062 662.140625 425.371094 662.246094 405.695312 C 683.730469 421.25 703.648438 440.53125 721.257812 463.355469 C 745.808594 448.277344 769.433594 429.042969 790.917969 406.039062 C 790.882812 435.320312 787.464844 464.6875 780.761719 493.3125 C 764.953125 561.273438 730.171875 624.632812 681.453125 674.324219 C 669.277344 686.738281 656.414062 698.507812 642.625 709.128906 C 635.871094 714.625 628.65625 719.515625 621.574219 724.570312 C 617.960938 726.992188 614.265625 729.304688 610.609375 731.667969 L 605.097656 735.167969 L 599.445312 738.441406 C 584.496094 747.386719 568.707031 754.878906 552.683594 761.699219 L 541.898438 765.957031 C 540.042969 766.660156 538.226562 767.460938 536.34375 768.066406 L 525.085938 771.886719 L 537.441406 809.667969 C 510.902344 799.988281 486.492188 788.085938 464.5 773.949219 C 442.503906 759.777344 423.03125 743.878906 406.207031 726.621094 C 422.90625 709.164062 436.894531 690.367188 448.023438 671.125 C 459.167969 651.835938 467.332031 631.625 472.679688 611.714844 "/>
<g clip-path="url(#clip2)" clip-rule="nonzero">
<path style=" stroke:none;fill-rule:nonzero;fill:rgb(32.939148%,32.939148%,32.939148%);fill-opacity:1;" d="M 726.476562 403.917969 C 709.441406 387.613281 690.785156 373.554688 671.019531 362.121094 C 652.359375 351.34375 632.386719 343.050781 611.65625 337.488281 L 611.035156 337.316406 L 649.257812 324.8125 L 646.796875 317.511719 C 646.558594 316.707031 646.234375 315.925781 645.921875 315.15625 C 645.734375 314.714844 645.554688 314.273438 645.382812 313.832031 L 642.570312 306.667969 C 638.449219 297.140625 633.394531 285.992188 627.089844 275.582031 L 624.9375 271.796875 L 617.871094 260.828125 C 616.777344 259.339844 615.703125 257.820312 614.632812 256.296875 C 612.398438 253.132812 610.085938 249.847656 607.558594 246.820312 C 601.210938 238.511719 593.609375 230.03125 584.324219 220.886719 C 551.058594 188.222656 509.414062 165.359375 463.894531 154.769531 C 444.898438 150.328125 425.3125 148.023438 405.691406 147.929688 L 405.316406 147.929688 L 405.53125 147.621094 C 421.328125 125.816406 440.6875 105.980469 463.101562 88.671875 C 447.710938 63.648438 428.46875 40.277344 405.898438 19.203125 L 405.546875 18.875 L 406.035156 18.875 C 435.324219 18.914062 464.699219 22.324219 493.351562 29.03125 C 561.769531 44.953125 624.390625 79.308594 674.453125 128.386719 C 687.941406 141.625 699.332031 154.335938 709.269531 167.246094 C 713.5625 172.5 717.542969 178.140625 721.386719 183.59375 C 722.492188 185.164062 723.605469 186.734375 724.71875 188.296875 C 726.441406 190.859375 728.101562 193.457031 729.761719 196.058594 L 731.816406 199.265625 L 735.324219 204.777344 L 738.601562 210.4375 C 746.511719 223.652344 753.910156 238.527344 761.871094 257.222656 L 766.128906 268.015625 C 766.375 268.65625 766.628906 269.300781 766.882812 269.9375 C 767.355469 271.117188 767.839844 272.34375 768.238281 273.578125 L 772 284.652344 L 809.972656 272.230469 L 809.839844 272.597656 C 800.132812 299.234375 788.105469 323.792969 774.101562 345.585938 C 760.128906 367.28125 744.195312 386.902344 726.738281 403.917969 L 726.613281 404.042969 L 726.476562 403.917969 "/>
</g>
<path style=" stroke:none;fill-rule:nonzero;fill:rgb(32.939148%,32.939148%,32.939148%);fill-opacity:1;" d="M 611.707031 337.300781 L 649.503906 324.929688 L 646.976562 317.453125 C 646.601562 316.1875 646.027344 314.992188 645.570312 313.765625 L 642.742188 306.59375 C 638.160156 295.96875 633.277344 285.417969 627.257812 275.484375 L 625.101562 271.707031 L 622.738281 268.042969 L 618.027344 260.722656 C 614.59375 256.042969 611.425781 251.164062 607.707031 246.695312 C 600.648438 237.457031 592.738281 228.902344 584.457031 220.75 C 551.246094 188.144531 509.039062 165.074219 463.9375 154.582031 C 444.90625 150.140625 425.363281 147.839844 405.691406 147.734375 C 421.246094 126.257812 440.523438 106.332031 463.347656 88.722656 C 448.269531 64.171875 429.035156 40.546875 406.035156 19.0625 C 435.3125 19.097656 464.679688 22.515625 493.304688 29.21875 C 561.273438 45.027344 624.632812 79.808594 674.316406 128.53125 C 686.730469 140.703125 698.5 153.574219 709.121094 167.363281 C 714.617188 174.109375 719.507812 181.324219 724.5625 188.40625 C 726.988281 192.019531 729.296875 195.714844 731.660156 199.371094 L 735.160156 204.882812 L 738.4375 210.535156 C 747.386719 225.484375 754.871094 241.273438 761.691406 257.296875 L 765.957031 268.082031 C 766.652344 269.9375 767.453125 271.753906 768.058594 273.636719 L 771.878906 284.898438 L 809.660156 272.539062 C 799.980469 299.078125 788.078125 323.488281 773.941406 345.480469 C 759.769531 367.476562 743.871094 386.949219 726.613281 403.773438 C 709.160156 387.074219 690.359375 373.085938 671.117188 361.957031 C 651.828125 350.8125 631.625 342.648438 611.707031 337.300781 "/>
</g>
</svg>
