<svg id="Layer_1" enable-background="new 0 0 128 128" height="512" viewBox="0 0 128 128" width="512" xmlns="http://www.w3.org/2000/svg"><g><path d="m109.7 56.8-10.2-18.5c-1.5-2.8-4.5-4.6-7.7-4.6h-15.2v-1.4c0-5.5-4.5-10-10-10h-39.4c-5.5 0-10 4.5-10 10v45.7c0 4.9 3.9 8.8 8.8 8.8h6.5c.3 1.5.9 2.9 1.9 4.1h-15.4c-1 0-1.8.8-1.8 1.8s.8 1.8 1.8 1.8h90c1 0 1.8-.8 1.8-1.8s-.8-1.8-1.8-1.8h-15.5c.9-1.2 1.6-2.6 1.9-4.1h6.6c4.8 0 8.8-3.9 8.8-8.8v-17c-.1-1.3-.4-2.8-1.1-4.2zm-3.1 1.6h-18.5c-.5 0-1-.4-1-1v-10.7c0-.5.4-1 1-1h11.5c9.6 17.5 6.3 11.4 7 12.7zm-85.8-26.1c0-3.6 2.9-6.5 6.5-6.5h39.4c3.6 0 6.5 2.9 6.5 6.5v37.2h-52.4zm15.1 52.7c0-3.2 2.6-5.8 5.8-5.8s5.8 2.6 5.8 5.8-2.6 5.8-5.8 5.8c-3.2 0-5.8-2.6-5.8-5.8zm41.3 1.7c.3 1.5.9 2.9 1.9 4.1h-30.1c.9-1.2 1.6-2.6 1.9-4.1zm3.3-1.7c0-3.2 2.6-5.8 5.8-5.8s5.8 2.6 5.8 5.8-2.6 5.8-5.8 5.8c-3.2 0-5.8-2.6-5.8-5.8zm21.5-1.8h-6.6c-1-5-5.8-8.3-10.9-7.4-3.7.7-6.7 3.6-7.4 7.4h-26.3c-1-5-5.8-8.3-10.9-7.4-3.7.7-6.7 3.6-7.4 7.4h-6.5c-2.9 0-5.3-2.4-5.3-5.3v-4.9h54.1c1 0 1.8-.8 1.8-1.8v-34h15.2c1.9 0 3.7 1.1 4.6 2.8l1.2 2.2h-9.6c-2.5 0-4.5 2-4.5 4.5v10.8c0 2.5 2 4.5 4.5 4.5h19.2v11.5h-3.2c-1 0-1.8.8-1.8 1.8s.8 1.8 1.8 1.8h3.3v1c-.1 2.8-2.4 5.1-5.3 5.1z"/><path d="m86.3 83c-1.1 0-2 .9-2 2s.9 2 2 2 2-.9 2-2c0-1.1-.9-2-2-2z"/><path d="m41.7 83c-1.1 0-2 .9-2 2s.9 2 2 2 2-.9 2-2c0-1.1-.9-2-2-2z"/><path d="m87.5 64.9h-2.5c-1 0-1.8.8-1.8 1.8s.8 1.8 1.8 1.8h2.5c1 0 1.8-.8 1.8-1.8s-.8-1.8-1.8-1.8z"/><path d="m65.6 32.6h-37.3c-1 0-1.7.8-1.8 1.7v24c0 2.5 2 4.5 4.5 4.5h31.8c2.5 0 4.5-2 4.5-4.5v-24c0-1-.8-1.7-1.7-1.7zm-1.8 5.1c0 1.6-1.3 2.9-2.9 2.9s-2.9-1.2-2.9-2.9v-1.7h5.8zm-9.3 0c0 1.6-1.2 2.9-2.9 3-1.6 0-3-1.3-3-3v-1.7h5.8zm-9.3 0c0 1.6-1.2 2.9-2.9 3-1.6 0-3-1.3-3-3v-1.7h5.8v1.7zm-15.1-1.6h5.8v1.7c0 1.6-1.3 2.9-2.9 2.9s-2.9-1.3-2.9-2.9zm32.7 23.2h-31.8c-.5 0-1-.4-1-1v-14.9c2.5 1.3 5.6.8 7.6-1.3 2.5 2.7 6.8 2.7 9.3 0 2.5 2.7 6.8 2.7 9.3 0 1.9 2.1 5 2.6 7.6 1.3v14.9c0 .6-.4 1-1 1z"/></g></svg>