<svg id="Capa_1" enable-background="new 0 0 512.032 512.032" height="512" viewBox="0 0 512.032 512.032" width="512" xmlns="http://www.w3.org/2000/svg"><g><path d="m510.376 297.197c-53.292-104.409-49.305-97.268-51.633-99.654-1.432-1.458-3.046-2.544-4.768-3.289-3.311-1.436-5.862-1.237-8.569-1.237-1.755-8.126-4.906-15.736-9.187-22.572 15.832-7.569 26.796-23.741 26.796-42.428 0-21.359-14.323-39.436-33.867-45.133-5.696-19.544-23.774-33.867-45.133-33.867s-39.437 14.323-45.133 33.867c-12.466 3.634-22.801 12.31-28.656 23.657-3.232-.988-6.66-1.523-10.211-1.523-2.757 0-5-2.243-5-5v-13h1c8.284 0 15-6.716 15-15v-57c0-8.284-6.716-15-15-15h-80c-8.284 0-15 6.716-15 15v57c0 8.284 6.716 15 15 15h1v13c0 2.757-2.243 5-5 5-5.961 0-11.576 1.501-16.493 4.141-11.486-44.296-31.476-76.141-59.507-76.141-23.785 0-41.78 22.931-53.704 56.938-.327.738-.587 1.509-.792 2.304-10.506 31.107-15.207 68.161-16.258 100.758-2.794 0-5.224.131-8.277 1.753-1.827.971-3.267 2.203-4.431 3.581-1.582 1.876 2.062-4.914-50.898 98.846-5.085 9.961 2.16 21.819 13.36 21.819h34v178c0 8.284 6.716 15 15 15h384c8.284 0 15-6.716 15-15v-178h34c11.185-.001 18.452-11.844 13.361-21.82zm-172.52-104.181c6-15.209 20.844-26 38.159-26s32.159 10.791 38.159 26c-16.59 0-52.028 0-76.318 0zm-2.841-65c0-9.374 7.626-17 17-17 8.284 0 15-6.716 15-15 0-9.374 7.626-17 17-17s17 7.626 17 17c0 8.284 6.716 15 15 15 9.374 0 17 7.626 17 17s-7.626 17-17 17h-7.32c-3.101-1.615-6.334-3.005-9.68-4.155v-12.845c0-8.284-6.716-15-15-15s-15 6.716-15 15v9.348c-12.584 1.238-24.203 5.785-34 12.741 0-5.714 0-16.681 0-22.089zm-104-98h50v27c-10.14 0-39.296 0-50 0zm-24 110c0-2.757 2.243-5 5-5 19.299 0 35-15.701 35-35v-13h18v13c0 19.299 15.701 35 35 35 2.757 0 5 2.243 5 5v53h-98zm-110.095 27h15.096c8.284 0 15-6.716 15-15s-6.716-15-15-15h-10.99c1.674-9.193 3.69-17.894 6.016-26h4.973c8.284 0 15-6.716 15-15 0-6.155-3.711-11.439-9.016-13.751 7.664-14.819 14.725-19.249 18.016-19.249 4.342 0 15.247 7.695 25.44 36.818 8.803 25.15 14.136 57.802 15.312 93.182h-81.504c.295-8.863.851-17.555 1.657-26zm336.095 315h-354v-163h354zm-393.502-193 33.687-66h365.631l33.688 66z"/><path d="m288.015 447.016h96c8.284 0 15-6.716 15-15s-6.716-15-15-15h-96c-8.284 0-15 6.716-15 15s6.716 15 15 15z"/><path d="m288.015 383.016h96c8.284 0 15-6.716 15-15s-6.716-15-15-15h-96c-8.284 0-15 6.716-15 15s6.716 15 15 15z"/><path d="m128.015 447.016h96c8.284 0 15-6.716 15-15v-64c0-8.284-6.716-15-15-15h-96c-8.284 0-15 6.716-15 15v64c0 8.284 6.716 15 15 15zm15-64h66v34h-66z"/></g></svg>