<?xml version="1.0"?>
<svg xmlns="http://www.w3.org/2000/svg" viewBox="0 0 64 64" width="512" height="512"><title>vegan-Food-fruits-vegetarian-restaurant</title><g id="Outline"><path d="M8.318,47.239A11.064,11.064,0,0,1,7,42V31H5V42a13.055,13.055,0,0,0,1.559,6.188Z"/><path d="M7.943,50.254a12.916,12.916,0,0,0,1.444,1.5l1.322-1.5A10.945,10.945,0,0,1,9.49,48.986Z"/><path d="M5.025,21.307c.339.193.906.516.987.6A4.9,4.9,0,0,1,5.6,23.1c-.43,1-.917,2.125-.257,3.048a5.386,5.386,0,0,0,1.676,1.29A3.965,3.965,0,0,1,9,30.89V42a8.98,8.98,0,0,0,5.033,8.081A7.99,7.99,0,0,0,21,62H31a7.987,7.987,0,0,0,6.168-2.911A12,12,0,0,0,57,50a11.925,11.925,0,0,0-2-6.619V35a4.99,4.99,0,0,0,3.461-8.594,8.984,8.984,0,0,0-.342-6.917l.369-.372a3,3,0,0,0,0-4.23,3.061,3.061,0,0,0-4.249,0l-.369.368A9.091,9.091,0,0,0,48,14.607V14a1,1,0,0,0-1-1H46V8H44v5.1a4.954,4.954,0,0,0-2,.925V6H40v6.026a4.954,4.954,0,0,0-2-.925V8H36v3H35a1,1,0,0,0-1,1v2a4.948,4.948,0,0,0,1.026,3H35a1,1,0,0,0-1,1v2a5.006,5.006,0,0,0,5,5H30.983a5.768,5.768,0,0,0-.579-1.9c-.161-.373-.43-1-.447-1.113a4.715,4.715,0,0,1,1.016-.682C31.923,20.76,33,20.145,33,19c0-1.849-1.49-3.063-2.8-4.136a9.521,9.521,0,0,1-1.627-1.533,8.5,8.5,0,0,1-.907-2.091c-.529-1.549-1.131-3.3-2.733-4.049-1.4-.646-2.925-.087-4.4.454A8.27,8.27,0,0,1,18,8.3a8.27,8.27,0,0,1-2.527-.655c-1.474-.541-3-1.1-4.4-.453-1.6.744-2.2,2.5-2.73,4.048a8.5,8.5,0,0,1-.907,2.091,9.521,9.521,0,0,1-1.627,1.533C4.49,15.937,3,17.151,3,19,3,20.149,4.076,20.765,5.025,21.307ZM31,60H21a6,6,0,0,1,0-12v5h2V48h2v7h2V48h2v5h2V48a6,6,0,0,1,0,12ZM24,35h2V33H22a3,3,0,0,1,0-6h5.025A4.975,4.975,0,0,0,31,35V46H24ZM45,60a10.038,10.038,0,0,1-6.751-2.639,7.959,7.959,0,0,0-2.88-10.054A10.043,10.043,0,0,1,44,40.055v3.652a3.344,3.344,0,0,1-1.108-1.16l-1.787.9A4.693,4.693,0,0,0,45,46a4.693,4.693,0,0,0,3.9-2.553l-1.787-.9A3.344,3.344,0,0,1,46,43.707V40.051A10,10,0,0,1,45,60Zm8.553-42.657a1,1,0,0,0,1.214-.155l.895-.895a1,1,0,0,1,1.407,1.413l-.89.9a1,1,0,0,0-.15,1.214,6.977,6.977,0,0,1,.684,5.5A4.931,4.931,0,0,0,55,25H46.974A4.948,4.948,0,0,0,48,22V20a1,1,0,0,0-1-1h-.026a4.94,4.94,0,0,0,.956-2.31A7.05,7.05,0,0,1,53.553,17.343ZM42,24a3,3,0,0,1,3-3h1v1a3,3,0,0,1-3,3H42Zm3-9h1v1a3,3,0,0,1-3,3H42V18A3,3,0,0,1,45,15Zm-9-2h1a3,3,0,0,1,3,3v1H39a3,3,0,0,1-3-3Zm0,7V19h1a3,3,0,0,1,3,3v1H39A3,3,0,0,1,36,20Zm-3,7H55a3,3,0,0,1,0,6H54a1,1,0,0,0-1,1v7.081a11.941,11.941,0,0,0-6.833-3.022,6.974,6.974,0,0,1,3.206-4.516l1.142-.686-1.03-1.714-1.141.685a8.984,8.984,0,0,0-4.208,6.21,12.052,12.052,0,0,0-10.591,8.384c-.179-.06-.361-.111-.545-.159V34a1,1,0,0,0-1-1H31a3,3,0,1,1,0-6ZM7.068,16.414a11.01,11.01,0,0,0,1.981-1.905,9.958,9.958,0,0,0,1.181-2.621c.421-1.228.855-2.5,1.678-2.88.653-.3,1.783.114,2.877.514A9.61,9.61,0,0,0,18,10.3a9.61,9.61,0,0,0,3.215-.778c1.094-.4,2.222-.814,2.874-.515.826.384,1.26,1.653,1.681,2.881a9.958,9.958,0,0,0,1.181,2.621,11.01,11.01,0,0,0,1.981,1.905c1.023.835,1.993,1.625,2.064,2.485a5.786,5.786,0,0,1-1.016.667c-.8.458-1.63.931-1.9,1.735a3.765,3.765,0,0,0,.485,2.59A6.477,6.477,0,0,1,28.976,25H23a3,3,0,0,1,3-3V20a4.948,4.948,0,0,0-3,1.026V20a3,3,0,0,1,3-3V15a5.006,5.006,0,0,0-5,5v5.1a4.954,4.954,0,0,0-2,.925V19H17V41h2V33.974A4.948,4.948,0,0,0,22,35V46H21a7.974,7.974,0,0,0-5.73,2.429A6.974,6.974,0,0,1,11,42V30.89A5.966,5.966,0,0,0,8,25.7a5.244,5.244,0,0,1-.985-.665,6.143,6.143,0,0,1,.415-1.141,3.762,3.762,0,0,0,.487-2.577,3.677,3.677,0,0,0-1.9-1.747A5.652,5.652,0,0,1,5,18.9C5.073,18.041,6.043,17.25,7.068,16.414Z"/><path d="M13,25V39h2V20a5.006,5.006,0,0,0-5-5v2a3,3,0,0,1,3,3v1.026A4.948,4.948,0,0,0,10,20v2A3,3,0,0,1,13,25Z"/><rect x="33" y="29" width="2" height="2"/><rect x="39" y="35" width="2" height="2"/><rect x="43" y="29" width="2" height="2"/><rect x="53" y="29" width="2" height="2"/><path d="M55.878,61.733a16.006,16.006,0,0,0,2.988-19.721l-1.732,1a14.008,14.008,0,0,1-2.615,17.255Z"/></g></svg>
